<?xml version="1.0" encoding="UTF-8"?>
<svg id="Camada_16" xmlns="http://www.w3.org/2000/svg" version="1.1" viewBox="0 0 46.81 19.85">
  <!-- Generator: Adobe Illustrator 29.2.1, SVG Export Plug-In . SVG Version: 2.1.0 Build 116)  -->
  <defs>
    <style>
      .st0 {
        fill: #eab478;
      }

      .st1 {
        fill: #edbd8c;
      }

      .st2 {
        fill: #efaf62;
      }

      .st3 {
        fill: #0e1821;
      }

      .st4 {
        fill: #f2ad51;
      }
    </style>
  </defs>
  <g>
    <path class="st4" d="M7.47,3.07c1.27-.59,2.65-.71,3.63-.58.21.02.4.06.57.11-.55.6-.73,1.14-.88,1.57-.14.43-.23.7-.6.85-1.06.43-2.13-.97-2.72-1.95Z"/>
    <path class="st1" d="M4.94,5.32c.21-.31.46-.62.73-.93.43-.49.94-.87,1.48-1.16.56.92,1.53,2.22,2.62,2.23.18,0,.37-.03.56-.11.52-.21.66-.61.81-1.07.14-.44.32-.97.9-1.56.47.19.78.46,1.01.74-1.01.72-1.21,1.75-1.38,2.58-.18.93-.31,1.6-1.31,1.74-.93.13-1.41-.61-1.91-1.39-.42-.64-.85-1.31-1.57-1.44-.71-.13-1.4.09-1.95.37Z"/>
    <path class="st0" d="M3.81,9.81c-.25-1.15-.05-2.45.7-3.81.51-.35,1.42-.86,2.32-.7.57.1.94.67,1.33,1.28.47.73,1,1.56,1.97,1.57.09,0,.18,0,.28-.02,1.25-.17,1.43-1.07,1.61-2.02.17-.85.34-1.73,1.24-2.35.25.37.41.73.66.96.05.05.11.09.17.13-1.13.57-1.28,1.67-1.4,2.67-.15,1.16-.29,2.17-1.78,2.43-1.54.27-2.13-.59-2.71-1.43-.46-.67-.94-1.37-1.89-1.16-1.31.29-2.09,1.49-2.52,2.45Z"/>
    <path class="st4" d="M14.15,12.84c-.62.32-1.44.58-2.51.75-.02-.67.03-1.33.26-1.81.24-.51.51-.79.74-.79.22,0,.47.26.65.68.24.55.52.94.85,1.18Z"/>
    <path class="st4" d="M8.83,13.46c.01.09.02.18.03.26-1.64-.17-3-.82-3.91-1.78.26-1.15.81-1.78,1.22-1.98.13-.06.33-.12.51-.03.28.14.3.38.31.8,0,.32.02.69.23,1.02.31.5.68.69.97.85.35.18.58.3.64.86Z"/>
    <path class="st2" d="M15.43,11.7s.07,0,.11-.01c-.24.35-.57.67-1.03.95-.33-.16-.63-.54-.88-1.11-.25-.57-.6-.89-.97-.9h0c-.4,0-.76.33-1.07,1-.21.44-.29.99-.3,1.56,0,.16,0,.31,0,.47.03.7.15,1.4.27,1.95v.02c.02.07.03.13.05.19-.17.11-.66.19-1.24.18s-1.06-.09-1.23-.21c.01-.05.02-.11.03-.17,0-.01,0-.03,0-.04.07-.45.11-1.06.04-1.82,0-.11-.02-.23-.03-.34,0,0,0,0,0-.01h0c-.09-.73-.47-.93-.83-1.12-.28-.15-.57-.3-.83-.72-.16-.25-.17-.56-.18-.84-.02-.41-.03-.87-.51-1.11-.24-.12-.53-.11-.83.03-.58.28-1.08,1.02-1.35,1.97-.29-.37-.53-.78-.68-1.23h0c.34-.93,1.09-2.37,2.43-2.67.67-.15,1.01.29,1.51,1.01.57.84,1.3,1.89,3.06,1.58,1.75-.31,1.92-1.54,2.08-2.74.14-1.06.27-2.07,1.49-2.51.79.28,1.74.3,2.29,1.92-2.2.84-2.43,2.4-2.42,3.05,0,.8.36,1.53.79,1.65.08.02.16.04.23.04Z"/>
    <path class="st4" d="M16.03,10.41c-.04.25-.1.49-.2.73h0c-.18.16-.33.23-.52.17-.22-.06-.53-.59-.54-1.31,0-.58.2-1.94,2.16-2.7.39,1.62-.72,2.04-.89,3.1Z"/>
  </g>
  <g>
    <g>
      <path class="st3" d="M20.56,2.47h.73l-.99,5.96h-.73l.99-5.96Z"/>
      <path class="st3" d="M22.06,4h.71l-.12.73c.41-.54,1.06-.82,1.74-.82.94,0,1.77.54,1.77,1.8,0,1.51-1,2.8-2.5,2.8-.68,0-1.26-.29-1.49-.83l-.39,2.36h-.71l.99-6.04ZM25.46,5.84c0-.93-.58-1.35-1.29-1.35-1.11,0-1.84,1-1.84,2.09,0,.94.6,1.35,1.3,1.35,1.11,0,1.83-1,1.83-2.09Z"/>
      <path class="st3" d="M26.71,6.67c0-1.46.94-2.75,2.55-2.75,1.05,0,1.77.54,1.77,1.65,0,.29-.05.66-.12.85h-3.5c0,.07,0,.13,0,.2,0,.98.46,1.36,1.29,1.36.56,0,1.09-.18,1.41-.78h.64c-.44.98-1.28,1.33-2.15,1.33-1.11,0-1.87-.55-1.87-1.86ZM30.32,5.92c.17-.94-.28-1.46-1.15-1.46-.95,0-1.51.66-1.71,1.46h2.85ZM29,2.36h1l.7,1.11h-.67l-.57-.88-.84.88h-.7l1.07-1.11Z"/>
    </g>
    <g>
      <path class="st3" d="M18.7,14.07c0-1.43.96-2.72,2.53-2.72.85,0,1.62.38,1.64,1.42h-.23c-.03-.92-.72-1.22-1.41-1.22-1.41,0-2.3,1.17-2.3,2.51,0,1.19.7,1.68,1.61,1.68.68,0,1.48-.27,1.8-1.25h.23c-.35,1.11-1.23,1.46-2.05,1.46-1.09,0-1.82-.62-1.82-1.88Z"/>
      <path class="st3" d="M23.31,14.94c0-.77.63-1.22,1.63-1.32l1.27-.14c.62-.06.8-.16.85-.44l.04-.24c.16-.9-.25-1.24-1.27-1.24s-1.5.35-1.62,1.02l-.02.1h-.22v-.1c.12-.88.88-1.22,1.9-1.22,1.12,0,1.63.41,1.45,1.46l-.5,3.06h-.23l.14-.89h-.03c-.2.34-1.01.98-2.11.98-.82,0-1.29-.36-1.29-1.01ZM26.84,14.43l.16-1.03c-.02.12-.28.22-.84.28l-1.17.13c-.89.09-1.44.47-1.44,1.13,0,.63.5.81,1.07.81,1.31,0,2.18-.94,2.23-1.32Z"/>
      <path class="st3" d="M28.68,11.44h.23l-.18,1.09c.52-.85,1.29-1.17,2.03-1.17,1,0,1.79.57,1.79,1.8,0,1.55-1.01,2.79-2.48,2.79-.77,0-1.42-.33-1.71-1.19l-.44,2.72h-.23l.99-6.04ZM32.34,13.2c0-1.14-.7-1.65-1.57-1.65-1.36,0-2.28,1.21-2.28,2.55,0,1.13.73,1.66,1.61,1.66,1.39,0,2.25-1.31,2.25-2.55Z"/>
      <path class="st3" d="M33.81,11.44h.23l-.73,4.43h-.23l.73-4.43ZM33.93,10.05c0-.12.11-.22.23-.22.13,0,.23.1.23.22s-.1.23-.23.23c-.12,0-.23-.11-.23-.23Z"/>
      <path class="st3" d="M35.23,15.07l.56-3.42h-.7l.03-.2h.71l.18-1.07h.23l-.18,1.07h.93l-.03.2h-.93l-.55,3.35c-.09.58.11.72.67.72h.23l-.04.19c-.11.03-.21.03-.32.03-.51,0-.9-.18-.79-.86Z"/>
      <path class="st3" d="M37.29,14.94c0-.77.63-1.22,1.63-1.32l1.27-.14c.62-.06.8-.16.85-.44l.04-.24c.16-.9-.25-1.24-1.27-1.24s-1.5.35-1.62,1.02l-.02.1h-.22v-.1c.12-.88.88-1.22,1.9-1.22,1.12,0,1.63.41,1.45,1.46l-.5,3.06h-.23l.14-.89h-.03c-.2.34-1.01.98-2.11.98-.82,0-1.29-.36-1.29-1.01ZM40.82,14.43l.16-1.03c-.02.12-.28.22-.84.28l-1.17.13c-.89.09-1.44.47-1.44,1.13,0,.63.5.81,1.07.81,1.31,0,2.18-.94,2.23-1.32Z"/>
      <path class="st3" d="M42.87,9.91h.23l-.99,5.96h-.23l.99-5.96Z"/>
    </g>
  </g>
</svg>